<svg fill="#000000" xmlns="http://www.w3.org/2000/svg"  viewBox="0 0 100 100" width="200px" height="200px">
    <path d="M70,82.988H31c-7.18,0-13-5.82-13-13v-39c0-7.18,5.82-13,13-13h39c7.18,0,13,5.82,13,13v39	C83,77.168,77.179,82.988,70,82.988z M20,30.988v39c0,6.075,4.925,11,11,11h39c6.075,0,11-4.925,11-11v-39c0-6.075-4.925-11-11-11	H31C24.924,19.988,20,24.913,20,30.988z"/>
    <path d="M67.162,77.988H33.837C27.852,77.988,23,73.136,23,67.151V33.825c0-5.985,4.852-10.837,10.837-10.837H67.5	c0.276,0,0.5,0.224,0.5,0.5s-0.224,0.5-0.5,0.5H33.837c-5.433,0-9.837,4.404-9.837,9.837V67.15c0,5.433,4.405,9.838,9.838,9.838	h33.325c5.433,0,9.837-4.404,9.837-9.837V48.488c0-0.276,0.224-0.5,0.5-0.5s0.5,0.224,0.5,0.5V67.15	C78,73.136,73.147,77.988,67.162,77.988z M77.5,45.567c-0.276,0-0.5-0.224-0.5-0.5v-4c0-0.276,0.224-0.5,0.5-0.5s0.5,0.224,0.5,0.5	v4C78,45.344,77.776,45.567,77.5,45.567z M77.5,39.567c-0.276,0-0.5-0.224-0.5-0.5v-2c0-0.276,0.224-0.5,0.5-0.5s0.5,0.224,0.5,0.5	v2C78,39.344,77.776,39.567,77.5,39.567z"/>
    <path d="M56.627,60.335c-0.605,0-1.305-0.075-2.057-0.312c-0.806-0.252-1.709-0.553-2.852-1.039	c-4.12-1.758-7.112-5.381-8.529-7.384l-0.078-0.11C42.469,50.64,41,48.446,41,46.161c0-2.44,1.237-3.741,1.766-4.297l0.091-0.097	C43.499,41.075,44.245,41,44.535,41c0.336,0,0.672,0.004,0.966,0.019c0.576,0.021,1.12,0.132,1.545,1.139l0.555,1.331	c0.369,0.887,0.875,2.102,0.947,2.248c0.085,0.168,0.349,0.688,0.041,1.299l-0.064,0.131c-0.131,0.265-0.243,0.492-0.497,0.784	l-0.249,0.295c-0.179,0.216-0.358,0.431-0.515,0.584c-0.229,0.226-0.229,0.226-0.137,0.382c0.341,0.577,1.28,2.049,2.638,3.245	c1.51,1.33,2.802,1.884,3.496,2.182c0.146,0.062,0.265,0.113,0.352,0.156c0.324,0.16,0.36,0.118,0.469-0.004	c0.37-0.418,1.227-1.422,1.519-1.854c0.566-0.84,1.296-0.578,1.691-0.435c0.521,0.185,3.136,1.464,3.416,1.604l0.263,0.127	c0.396,0.188,0.709,0.338,0.886,0.629c0.263,0.428,0.156,1.632-0.243,2.738c-0.494,1.367-2.689,2.483-3.72,2.636	C57.546,60.286,57.117,60.335,56.627,60.335z M44.535,42c-0.124,0-0.56,0.032-0.946,0.448l-0.099,0.105	C43.007,43.062,42,44.12,42,46.161c0,1.982,1.328,3.956,1.898,4.713l0.107,0.149c1.356,1.917,4.212,5.38,8.105,7.041	c1.102,0.47,1.977,0.761,2.758,1.005c1.164,0.366,2.199,0.277,2.877,0.176c0.879-0.129,2.609-1.111,2.925-1.985	c0.347-0.958,0.36-1.754,0.308-1.925c-0.021-0.001-0.253-0.111-0.438-0.2l-0.277-0.134c-0.65-0.323-2.92-1.419-3.309-1.557	c-0.395-0.143-0.399-0.137-0.526,0.052c-0.344,0.51-1.292,1.61-1.597,1.956c-0.583,0.659-1.226,0.453-1.662,0.238	c-0.074-0.037-0.177-0.08-0.302-0.134c-0.692-0.297-2.134-0.914-3.764-2.351c-1.465-1.291-2.473-2.868-2.838-3.487	c-0.488-0.83,0.062-1.37,0.296-1.602c0.136-0.135,0.292-0.323,0.448-0.512l0.264-0.312c0.168-0.194,0.238-0.336,0.354-0.57	l0.069-0.138c0.052-0.104,0.061-0.198-0.042-0.401c-0.083-0.167-0.44-1.023-0.977-2.312l-0.554-1.326	c-0.224-0.53-0.353-0.524-0.533-0.527l-0.138-0.002C45.174,42.004,44.855,42,44.535,42z"/>
    <path d="M33,69c-0.134,0-0.264-0.054-0.359-0.152c-0.123-0.127-0.17-0.312-0.122-0.482l2.431-8.67	c-0.465-0.809-0.868-1.653-1.202-2.515c-0.262-0.674-0.484-1.365-0.662-2.056C32.697,53.62,32.5,52.063,32.5,50.5	C32.5,40.299,40.799,32,51,32s18.5,8.299,18.5,18.5S61.201,69,51,69c-3.088,0-6.143-0.778-8.846-2.253l-1.534,0.38	c-0.272,0.062-0.539-0.099-0.605-0.365c-0.066-0.269,0.098-0.539,0.365-0.605l1.725-0.427c0.126-0.03,0.253-0.013,0.364,0.049	C45.065,67.231,48.016,68,51,68c9.649,0,17.5-7.851,17.5-17.5S60.649,33,51,33s-17.5,7.851-17.5,17.5	c0,1.479,0.187,2.951,0.554,4.375c0.168,0.653,0.378,1.307,0.625,1.944c0.341,0.877,0.757,1.736,1.239,2.554	c0.069,0.117,0.088,0.258,0.051,0.389l-2.256,8.047l1.667-0.413c0.268-0.067,0.539,0.098,0.605,0.365s-0.097,0.539-0.365,0.605	l-2.5,0.619C33.08,68.995,33.04,69,33,69z"/>
    <path d="M37.5,67.885c-0.226,0-0.43-0.152-0.485-0.381c-0.066-0.268,0.098-0.539,0.366-0.604l0.999-0.247	c0.271-0.069,0.538,0.098,0.605,0.365c0.066,0.268-0.097,0.539-0.365,0.605l-1.001,0.247C37.579,67.88,37.539,67.885,37.5,67.885z"/>
</svg>