<svg width="44" height="44" viewBox="0 0 44 44" fill="none" xmlns="http://www.w3.org/2000/svg">
<path d="M33.1719 4.55469C33.1719 5.02936 32.7872 5.41406 32.3125 5.41406C31.8378 5.41406 31.4531 5.02936 31.4531 4.55469C31.4531 4.08002 31.8378 3.69531 32.3125 3.69531C32.7872 3.69531 33.1719 4.08002 33.1719 4.55469Z" fill="white"/>
<path d="M22 9.10938C13.9444 9.10938 7.39062 15.6631 7.39062 23.7188C7.39062 31.8523 13.9974 38.3281 22 38.3281C30.0201 38.3281 36.6094 31.8409 36.6094 23.7188C36.6094 15.6631 30.0556 9.10938 22 9.10938ZM19.3537 36.3361C19.3974 36.1465 19.4209 35.9501 19.4219 35.75V32.3266C19.4199 31.0735 19.8566 30.8791 20.3564 30.1157C20.5169 29.8707 20.5414 29.5608 20.4219 29.2933C20.3021 29.0261 20.0543 28.8381 19.7646 28.7951C16.3557 28.2862 15.0176 26.5288 14.4952 25.1444C13.7997 23.3001 14.1679 21.0003 15.3905 19.5504C15.5765 19.3319 15.743 18.9391 15.6094 18.5461C15.3486 17.7582 15.3892 16.4997 15.5517 16.0129C16.2922 16.1213 16.9841 16.541 17.7723 17.0193C18.2285 17.2966 18.5528 17.5524 19.1046 17.404C20.0691 17.1425 21.0433 17.0035 22 16.9908C22.9571 17.0032 23.9312 17.1425 24.897 17.4044C25.4456 17.5524 25.7806 17.2909 26.2277 17.0193C27.0163 16.541 27.7081 16.121 28.4487 16.0129C28.6111 16.4993 28.6518 17.7575 28.3933 18.539C28.2573 18.9388 28.4235 19.3319 28.6095 19.5504C29.8324 21 30.2007 23.3001 29.5048 25.1444C28.9828 26.5288 27.6447 28.2862 24.2357 28.7948C23.946 28.8381 23.6983 29.0261 23.5784 29.2933C23.4586 29.5608 23.4831 29.8707 23.6436 30.1157C24.1424 30.8774 24.5805 31.0718 24.5785 32.3279V35.7547C24.5795 35.9528 24.6026 36.1478 24.6459 36.3361C23.7802 36.5167 22.8943 36.6094 22 36.6094C21.1057 36.6094 20.2195 36.5167 19.3537 36.3361ZM26.3063 35.8719C26.3009 35.8319 26.2972 35.7916 26.2969 35.75V32.3293C26.2986 31.343 26.0817 30.7015 25.8131 30.2205C28.4211 29.5155 30.2799 27.9596 31.1127 25.751C31.9926 23.4183 31.5934 20.6297 30.1288 18.6991C30.3957 17.5245 30.388 15.6695 29.7485 14.8259C29.4625 14.4482 29.063 14.2525 28.6212 14.2717C27.2774 14.3338 26.2418 15.0045 25.1139 15.6846C24.0816 15.4234 23.039 15.2848 22.0104 15.272C22.0034 15.2717 21.9966 15.2717 21.9896 15.272C20.9607 15.2845 19.9174 15.4234 18.8861 15.6846C17.7669 15.0099 16.7283 14.3341 15.3784 14.2717C14.9387 14.2515 14.5379 14.4482 14.2515 14.8259C13.613 15.6682 13.6043 17.5188 13.8715 18.6985C12.4069 20.629 12.0074 23.4183 12.8873 25.751C13.7201 27.9596 15.5789 29.5155 18.1869 30.2201C17.9747 30.6001 17.7954 31.0808 17.73 31.7512C16.6672 32.1228 15.8068 31.8778 15.2227 30.8935C14.5396 29.7444 13.3821 28.8176 12.0554 28.9321C11.5824 28.973 11.2323 29.3896 11.2733 29.8623C11.3139 30.3353 11.7318 30.6861 12.2035 30.6448C12.8178 30.5914 13.4237 31.2312 13.745 31.7714C14.6634 33.3192 16.1512 33.8718 17.7031 33.5398V35.745C17.7028 35.7883 17.6991 35.8302 17.6934 35.8715C12.606 34.0665 9.10938 29.1667 9.10938 23.7188C9.10938 16.6108 14.892 10.8281 22 10.8281C29.108 10.8281 34.8906 16.6108 34.8906 23.7188C34.8906 29.1667 31.394 34.0665 26.3063 35.8719V35.8719Z" fill="#DBFF00"/>
<path d="M39.7031 0H4.29688C1.92755 0 0 1.92755 0 4.29688V39.7031C0 42.0724 1.92755 44 4.29688 44H39.7031C42.0724 44 44 42.0724 44 39.7031V4.29688C44 1.92755 42.0724 0 39.7031 0ZM42.2812 39.7031C42.2812 41.1248 41.1248 42.2812 39.7031 42.2812H4.29688C2.87521 42.2812 1.71875 41.1248 1.71875 39.7031V4.29688C1.71875 2.87521 2.87521 1.71875 4.29688 1.71875H39.7031C41.1248 1.71875 42.2812 2.87521 42.2812 4.29688V39.7031Z" fill="white"/>
<path d="M11.6875 5.41406H28.875C29.3497 5.41406 29.7344 5.02936 29.7344 4.55469C29.7344 4.08002 29.3497 3.69531 28.875 3.69531H11.6875C11.2128 3.69531 10.8281 4.08002 10.8281 4.55469C10.8281 5.02936 11.2128 5.41406 11.6875 5.41406Z" fill="white"/>
</svg>
