<svg width="44" height="44" viewBox="0 0 44 44" fill="none" xmlns="http://www.w3.org/2000/svg">
<path d="M33.1719 4.55469C33.1719 5.02936 32.7872 5.41406 32.3125 5.41406C31.8378 5.41406 31.4531 5.02936 31.4531 4.55469C31.4531 4.08002 31.8378 3.69531 32.3125 3.69531C32.7872 3.69531 33.1719 4.08002 33.1719 4.55469Z" fill="white"/>
<path d="M22 9.10938C13.9444 9.10938 7.39062 15.6631 7.39062 23.7188C7.39062 26.3778 8.10733 28.9656 9.46689 31.2296L7.58365 37.0532C7.48428 37.36 7.56519 37.697 7.79346 37.9253C8.02173 38.1536 8.35876 38.2345 8.66559 38.1351L14.4892 36.2519C16.7531 37.6114 19.3413 38.3281 22 38.3281C30.0556 38.3281 36.6094 31.7744 36.6094 23.7188C36.6094 15.6631 30.0556 9.10938 22 9.10938ZM22 36.6094C19.5323 36.6094 17.1348 35.9101 15.0663 34.5878C14.8497 34.4492 14.5825 34.4153 14.3388 34.4942L9.73611 35.9826L11.2246 31.3796C11.3035 31.1356 11.2692 30.8687 11.1309 30.6525C9.80862 28.584 9.10938 26.1864 9.10938 23.7188C9.10938 16.6108 14.892 10.8281 22 10.8281C29.108 10.8281 34.8906 16.6108 34.8906 23.7188C34.8906 30.8267 29.108 36.6094 22 36.6094Z" fill="#DBFF00"/>
<path d="M39.7031 0H4.29688C1.92755 0 0 1.92755 0 4.29688V39.7031C0 42.0724 1.92755 44 4.29688 44H39.7031C42.0724 44 44 42.0724 44 39.7031V4.29688C44 1.92755 42.0724 0 39.7031 0ZM42.2812 39.7031C42.2812 41.1248 41.1248 42.2812 39.7031 42.2812H4.29688C2.87521 42.2812 1.71875 41.1248 1.71875 39.7031V4.29688C1.71875 2.87521 2.87521 1.71875 4.29688 1.71875H39.7031C41.1248 1.71875 42.2812 2.87521 42.2812 4.29688V39.7031Z" fill="white"/>
<path d="M11.6875 5.41406H28.875C29.3497 5.41406 29.7344 5.02936 29.7344 4.55469C29.7344 4.08002 29.3497 3.69531 28.875 3.69531H11.6875C11.2128 3.69531 10.8281 4.08002 10.8281 4.55469C10.8281 5.02936 11.2128 5.41406 11.6875 5.41406Z" fill="white"/>
<path d="M28.1902 24.5083C27.8454 24.1635 27.3872 23.9739 26.8998 23.9739C26.8995 23.9739 26.8991 23.9739 26.8988 23.9739C26.4114 23.9739 25.9535 24.1642 25.6104 24.5079L24.9269 25.1908C24.5087 25.609 23.8312 25.609 23.413 25.1908L20.6831 22.4602C20.2675 22.045 20.2615 21.3682 20.6834 20.9466L21.3666 20.2634C22.0759 19.5524 22.0759 18.395 21.3656 17.6833L18.6364 14.9548C17.9244 14.2411 16.7689 14.2404 16.0556 14.9541L15.3734 15.6362C14.3966 16.6128 14.0703 18.6753 14.5228 21.0181C15.0122 23.5536 16.2838 25.9518 18.1026 27.7709C19.9214 29.5897 22.3196 30.8609 24.8551 31.3507C26.5597 31.6797 29.021 31.7173 30.2373 30.5001L30.9187 29.8186C31.6327 29.1066 31.6334 27.9518 30.9194 27.2378L28.1902 24.5083ZM29.0217 29.2849C28.5554 29.7511 27.0868 30.0308 25.181 29.6632C23.9057 29.4168 21.4481 28.6857 19.3178 26.5553C17.1879 24.4254 16.4567 21.9678 16.2103 20.6925C15.8424 18.7867 16.122 17.3177 16.5883 16.8518C16.5883 16.8518 16.5886 16.8518 16.5886 16.8515L17.2711 16.1693C17.3124 16.128 17.3782 16.127 17.4205 16.1693L20.1497 18.8978C20.1913 18.9395 20.1913 19.0076 20.1503 19.0486L19.4686 19.7307C18.3779 20.82 18.3765 22.5854 19.4679 23.6758L22.1974 26.406C23.2867 27.4953 25.0518 27.4966 26.1418 26.4063L26.8259 25.7228C26.8669 25.6819 26.933 25.6822 26.9747 25.7235C29.8502 28.6145 29.7354 28.445 29.7354 28.5282C29.7354 28.6051 29.7253 28.5672 29.0217 29.2849V29.2849Z" fill="white"/>
</svg>
